<svg xmlns="http://www.w3.org/2000/svg" width="256" height="256" viewBox="0 0 100 100"><path fill="#ec7996" d="M45.89 56.61L45.89 56.61Q45.89 61.09 44.34 64.44Q42.79 67.80 40.09 70.02Q37.39 72.25 33.77 73.36Q30.16 74.47 26.00 74.47L26.00 74.47Q24.40 74.47 22.49 74.05Q20.57 73.62 18.61 72.98Q16.65 72.34 14.83 71.61Q13.02 70.87 11.61 70.22L11.61 70.22L13.05 56.74Q15.83 58.41 19.22 59.27Q22.60 60.14 25.87 60.14L25.87 60.14Q26.49 60.14 27.38 60.09Q28.26 60.04 29.06 59.80Q29.86 59.55 30.42 59.06Q30.98 58.57 30.98 57.66L30.98 57.66Q30.98 57.03 30.58 56.59Q30.19 56.15 29.57 55.87Q28.95 55.59 28.16 55.45Q27.38 55.30 26.63 55.23Q25.87 55.17 25.22 55.17Q24.56 55.17 24.17 55.17L24.17 55.17Q21.36 55.17 19.05 54.19Q16.75 53.21 15.09 51.46Q13.44 49.71 12.53 47.30Q11.61 44.90 11.61 42.08L11.61 42.08Q11.61 38.22 13.16 35.16Q14.72 32.10 17.32 29.96Q19.92 27.82 23.29 26.67Q26.66 25.53 30.26 25.53L30.26 25.53Q31.86 25.53 33.56 25.64Q35.26 25.76 36.95 26.05Q38.63 26.35 40.23 26.81Q41.84 27.26 43.28 27.95L43.28 27.95L42.03 41.23Q39.81 40.48 37.37 39.97Q34.93 39.47 32.61 39.47L32.61 39.47Q32.19 39.47 31.52 39.48Q30.85 39.50 30.11 39.58Q29.37 39.66 28.62 39.83Q27.87 39.99 27.28 40.27Q26.69 40.55 26.33 41.00Q25.97 41.46 26.00 42.08L26.00 42.08Q26.04 42.80 26.54 43.24Q27.05 43.69 27.85 43.93Q28.65 44.18 29.62 44.27Q30.58 44.37 31.53 44.39Q32.48 44.41 33.30 44.39Q34.12 44.37 34.64 44.44L34.64 44.44Q37.26 44.60 39.35 45.55Q41.45 46.50 42.90 48.07Q44.36 49.64 45.13 51.82Q45.89 53.99 45.89 56.61ZM88.39 48.95L88.39 48.95Q88.39 51.93 87.70 54.69Q87.02 57.46 85.72 59.88Q84.43 62.30 82.58 64.31Q80.74 66.32 78.43 67.76Q76.12 69.20 73.41 70.01Q70.69 70.81 67.65 70.81L67.65 70.81Q64.71 70.81 62.04 70.05Q59.37 69.30 57.05 67.94Q54.73 66.59 52.85 64.67Q50.97 62.76 49.64 60.42Q48.32 58.08 47.58 55.40Q46.84 52.72 46.84 49.80L46.84 49.80Q46.84 46.96 47.53 44.23Q48.22 41.49 49.51 39.07Q50.80 36.65 52.63 34.62Q54.47 32.60 56.74 31.12Q59.01 29.65 61.66 28.83Q64.31 28.02 67.26 28.02L67.26 28.02Q72.00 28.02 75.91 29.49Q79.82 30.96 82.58 33.69Q85.35 36.42 86.87 40.30Q88.39 44.18 88.39 48.95ZM73.87 49.80L73.87 49.80Q73.87 48.40 73.46 47.07Q73.05 45.75 72.26 44.72Q71.48 43.69 70.32 43.05Q69.15 42.41 67.65 42.41L67.65 42.41Q66.11 42.41 64.90 42.97Q63.69 43.52 62.82 44.49Q61.96 45.45 61.50 46.74Q61.04 48.04 61.04 49.48L61.04 49.48Q61.04 50.85 61.43 52.22Q61.83 53.60 62.61 54.71Q63.40 55.82 64.56 56.51Q65.72 57.20 67.26 57.20L67.26 57.20Q68.79 57.20 70.02 56.59Q71.25 55.99 72.10 54.96Q72.95 53.93 73.41 52.58Q73.87 51.24 73.87 49.80Z"></path></svg>